# AST/ASF file generated using VICON BodyLanguage
# -----------------------------------------------
:version 1.10
:name VICON
:units
  mass 1.0
  length 0.45
  angle deg
:documentation
   .ast/.asf automatically generated from VICON data using
   VICON BodyBuilder and BodyLanguage model FoxedUp or BRILLIANT.MOD
:root
   order TX TY TZ RX RY RZ
   axis XYZ
   position 0 0 0  
   orientation 0 0 0 
:bonedata
  begin
     id 1 
     name lhipjoint
     direction 0.64773 -0.699417 0.302095 
     length 2.48597 
     axis 0 0 0  XYZ
  end
  begin
     id 2 
     name lfemur
     direction 0.34202 -0.939693 0  
     length 6.71947  
     axis 0 0 20  XYZ
    dof rx ry rz
    limits (-160.0 20.0)
           (-70.0 70.0)
           (-60.0 70.0)
  end
  begin
     id 3 
     name ltibia
     direction 0.34202 -0.939693 0   
     length 8.08777   
     axis 0 0 20   XYZ
    dof rx
    limits (-10.0 170.0)
  end
  begin
     id 4 
     name lfoot
     direction 0.0808503 -0.222134 0.971658   
     length 2.08264   
     axis -90 7.62852e-016 20   XYZ
    dof rx rz
    limits (-45.0 90.0)
           (-70.0 20.0)
  end
  begin
     id 5 
     name ltoes
     direction 1.53502e-011 -4.22007e-011 1   
     length 1.04662   
     axis -90 7.62852e-016 20   XYZ
    dof rx
    limits (-90.0 20.0)
  end
  begin
     id 6 
     name rhipjoint
     direction -0.610924 -0.726792 0.313919   
     length 2.39233  
     axis 0 0 0  XYZ 
  end
  begin
     id 7 
     name rfemur
     direction -0.34202 -0.939693 0   
     length 6.96955   
     axis 0 0 -20   XYZ
    dof rx ry rz
    limits (-160.0 20.0)
           (-70.0 70.0)
           (-70.0 60.0)
  end
  begin
     id 8 
     name rtibia
     direction -0.34202 -0.939693 0   
     length 8.19584   
     axis 0 0 -20   XYZ
    dof rx
    limits (-10.0 170.0)
 end
 begin
     id 9 
     name rfoot
     direction -0.077777 -0.213691 0.9738   
     length 2.07539  
     axis -90 -7.62852e-016 -20   XYZ
    dof rx rz
    limits (-45.0 90.0)
           (-20.0 70.0)
  end
  begin
     id 10 
     name rtoes
     direction -1.53558e-011 -4.22006e-011 1   
     length 1.04381   
     axis -90 -7.62852e-016 -20   XYZ
    dof rx
    limits (-90.0 20.0)
  end
  begin
     id 11 
     name lowerback
     direction -0.00971646 0.996074 0.0879841   
     length 1.67643   
     axis 0 0 0   XYZ
    dof rx ry rz
    limits (-20.0 45.0)
           (-30.0 30.0)
           (-30.0 30.0)
  end
  begin
     id 12 
     name upperback
     direction 0.0127391 0.991676 0.128127   
     length 1.63741   
     axis 0 0 0   XYZ
    dof rx ry rz
    limits (-20.0 45.0)
           (-30.0 30.0)
           (-30.0 30.0)
  end
  begin
     id 13 
     name thorax
     direction 0.0167583 0.996049 0.0872067   
     length 1.65931   
     axis 0 0 0   XYZ
    dof rx ry rz
    limits (-20.0 45.0)
           (-30.0 30.0)
           (-30.0 30.0)
  end
  begin
     id 14 
     name lowerneck
     direction -0.0317829 0.998312 0.0486079   
     length 1.79021   
     axis 0 0 0   XYZ
    dof rx ry rz
    limits (-20.0 45.0)
           (-30.0 30.0)
           (-30.0 30.0)
  end
  begin
     id 15 
     name upperneck
     direction 0.0896851 0.972452 -0.215159   
     length 1.78797   
     axis 0 0 0   XYZ
    dof rx ry rz
    limits (-20.0 45.0)
           (-30.0 30.0)
           (-30.0 30.0)
  end
  begin
     id 16
     name head
     direction 0.0310949 0.996503 -0.0775582  
     length 1.81549  
     axis 0 0 0   XYZ
    dof rx ry rz
    limits (-20.0 45.0)
           (-30.0 30.0)
           (-30.0 30.0)
  end
  begin
     id 17 
     name lclavicle
     direction 0.853638 0.502051 -0.138733  
     length 3.31627  
     axis 0 0 0   XYZ
    dof ry rz
    limits (-20.0 10.0)
           (0.0 20.0)
  end
  begin
     id 18 
     name lhumerus
     direction 1 -4.48962e-011 -1.41788e-018   
     length 5.54893   
     axis 180 -30 -90   XYZ
    dof rx ry rz
    limits (-60.0 90.0)
           (-90.0 90.0)
           (-90.0 90.0)
  end
  begin
     id 19
     name lradius
     direction 1 -4.48962e-011 -4.95754e-027   
     length 3.02898   
     axis 180 -30 -90   XYZ
    dof rx
    limits (-10.0 170.0)
  end
  begin
     id 20
     name lwrist
     direction 1 -4.48952e-011 -1.03764e-026   
     length 1.51449   
     axis 9.09556e-015 90 90   XYZ
    dof ry
    limits (-180.0 0.0)
 end
  begin
     id 21 
     name lhand
     direction 1 -4.4902e-011 -2.07528e-026   
     length 0.640951   
     axis 1.3242e-014 90 90   XYZ
    dof rx rz
    limits (-90.0 90.0)
           (-45.0 45.0)
  end
  begin
     id 22 
     name lfingers
     direction 1 -4.49014e-011 -4.15056e-026   
     length 0.516751   
     axis 2.64841e-014 90 90   XYZ
    dof rx
    limits (0.0 90.0)
  end
  begin
     id 23
     name lthumb
     direction 0.707107 -6.35008e-011 0.707107   
     length 0.741954   
     axis -90 45 2.85299e-015   XYZ
    dof rx rz
    limits (-45.0 45.0)
           (-45.0 45.0)
  end
  begin
     id 24 
     name rclavicle
     direction -0.888531 0.455324 -0.0565039   
     length 3.20126  
     axis 0 0 0   XYZ 
    dof ry rz
    limits (-10.0 20.0)
           (-20.0 0.0)
  end
  begin
     id 25 
     name rhumerus
     direction -1 -4.48946e-011 -8.98298e-028  
     length 5.3519   
     axis 180 30 90   XYZ
    dof rx ry rz
    limits (-90.0 60.0)
           (-90.0 90.0)
           (-90.0 90.0)
  end
  begin
     id 26 
     name rradius
     direction -1 -4.4899e-011 -3.18779e-027   
     length 3.02531   
     axis 180 30 90   XYZ
    dof rx
    limits (-10.0 170.0)
  end
  begin
     id 27 
     name rwrist
     direction -1 -4.4897e-011 -1.03764e-026   
     length 1.51266   
     axis 9.09556e-015 -90 -90   XYZ
    dof ry
    limits (-180.0 0.0)
  end
  begin
     id 28
     name rhand
     direction -1 -4.48941e-011 -2.07528e-026   
     length 0.78389   
     axis 1.3242e-014 -90 -90   XYZ
    dof rx rz
    limits (-90.0 90.0)
           (-45.0 45.0)
  end
  begin
     id 29
     name rfingers
     direction -1 -4.49012e-011 -4.15056e-026   
     length 0.631992   
     axis 2.64841e-014 -90 -90   XYZ
    dof rx
    limits (0.0 90.0)
  end
  begin
     id 30
     name rthumb
     direction -0.707107 -6.3496e-011 0.707107   
     length 0.907418   
     axis -90 -45 -2.85299e-015   XYZ
    dof rx rz
    limits (-45.0 45.0)
           (-45.0 45.0)
  end
:hierarchy
  begin
    root lhipjoint rhipjoint lowerback
    lhipjoint lfemur
    lfemur ltibia
    ltibia lfoot
    lfoot ltoes
    rhipjoint rfemur
    rfemur rtibia
    rtibia rfoot
    rfoot rtoes
    lowerback upperback
    upperback thorax
    thorax lowerneck lclavicle rclavicle
    lowerneck upperneck
    upperneck head
    lclavicle lhumerus
    lhumerus lradius
    lradius lwrist
    lwrist lhand lthumb
    lhand lfingers
    rclavicle rhumerus
    rhumerus rradius
    rradius rwrist
    rwrist rhand rthumb
    rhand rfingers
  end

#!OML:ASF E:\Style3\Style3.ASF
:FULLY-SPECIFIED
:DEGREES
3539
root -0.0994577 17.8534 1.01149 199.395 81.618 543.549
lowerback -5.6469 2.31375 -0.587803
upperback -9.25364 3.7953 3.11466
thorax -6.77766 2.29099 3.55077
lowerneck -8.40167 -2.406 -3.90302
upperneck 33.9701 -8.0615 26.158
head 14.6537 0.154542 11.2796
rclavicle -3.27995e-014 -6.44062e-014
rhumerus -18.6366 19.5777 -59.0397
rradius 127.063
rwrist -18.3839
rhand 36.3531 10.812
rfingers 7.12502
rthumb 59.3096 -3.6732
lclavicle -3.27995e-014 -6.44062e-014
lhumerus 18.5315 5.02124 0.0545028
lradius 135
lwrist 72.2244
lhand 44.0725 49.2237
lfingers 7.12502
lthumb 65.6727 55.2394
rfemur -16.2276 12.1969 15.7408
rtibia 13.8772
rfoot -12.8233 -21.0488
rtoes -18.3411
lfemur -11.1229 -6.8239 -12.9401
ltibia 2.38542e-015
lfoot -4.5194 8.89531
ltoes -19.7772
3540
root -0.0968891 17.8538 1.01401 199.721 81.6971 543.725
lowerback -5.71154 2.35838 -0.668566
upperback -9.3 3.85955 3.07852
thorax -6.79919 2.32998 3.55934
lowerneck -8.2235 -2.51633 -4.04966
upperneck 33.8253 -8.19821 26.3032
head 14.5913 0.0751341 11.3396
rclavicle 8.84592e-014 1.19271e-014
rhumerus -18.9839 19.1734 -58.8206
rradius 127.134
rwrist -18.7502
rhand 36.3772 10.8803
rfingers 7.12502
rthumb 59.3303 -3.58436
lclavicle 8.84592e-014 1.19271e-014
lhumerus 18.8712 8.82718 1.3184
lradius 136.268
lwrist 75.5992
lhand 40.7642 45.649
lfingers 7.12502
lthumb 63.0255 55.8046
rfemur -16.4167 12.152 15.7331
rtibia 13.8748
rfoot -12.783 -20.9604
rtoes -18.3215
lfemur -11.259 -6.79209 -12.9
ltibia 3.97569e-014
lfoot -4.47728 8.94995
ltoes -20.0748
3541
root -0.0927204 17.8529 1.01459 199.845 81.7819 543.74
lowerback -5.73106 2.39134 -0.769046
upperback -9.36267 3.912 3.06516
thorax -6.86693 2.36646 3.60025
lowerneck -8.02403 -2.60917 -4.30787
upperneck 33.7639 -8.29942 26.4712
head 14.5613 0.00245214 11.457
rclavicle 1.54058e-014 7.95139e-016
rhumerus -19.2908 18.876 -58.6049
rradius 127.178
rwrist -19.1313
rhand 36.3807 10.7861
rfingers 7.12502
rthumb 59.3333 -3.67549
lclavicle 1.54058e-014 7.95139e-016
lhumerus 19.3026 12.8563 2.83234
lradius 137.239
lwrist 78.7337
lhand 37.7434 42.3999
lfingers 7.12502
lthumb 60.4997 55.6447
rfemur -16.5383 12.0666 15.7048
rtibia 13.8655
rfoot -12.8287 -20.7596
rtoes -18.2686
lfemur -11.3328 -6.77072 -12.8999
ltibia 2.22639e-014
lfoot -4.50387 9.02387
ltoes -20.0725
3542
root -0.0867363 17.8524 1.01445 199.868 81.8563 543.666
lowerback -5.78273 2.42503 -0.862903
upperback -9.42361 3.96342 3.02849
thorax -6.91211 2.40077 3.6146
lowerneck -7.84847 -2.6522 -4.35695
upperneck 33.7576 -8.33314 26.4676
head 14.5235 -0.0252653 11.4544
rclavicle -4.27387e-015 -5.56597e-015
rhumerus -19.5858 18.5794 -58.405
rradius 127.249
rwrist -19.5734
rhand 36.4296 10.3609
rfingers 7.12502
rthumb 59.3754 -4.05879
lclavicle -4.27387e-015 -5.56597e-015
lhumerus 19.9401 16.7731 4.46774
lradius 137.949
lwrist 81.4973
lhand 34.4389 39.3844
lfingers 7.12502
lthumb 57.6473 55.4181
rfemur -16.6278 11.9486 15.6714
rtibia 13.8407
rfoot -12.8323 -20.5578
rtoes -18.3009
lfemur -11.4021 -6.76568 -12.9115
ltibia 1.19271e-014
lfoot -4.55177 9.0762
ltoes -19.9707
3543
root -0.080856 17.8523 1.01655 200.477 81.8707 544.236
lowerback -5.7933 2.44957 -0.861268
upperback -9.39536 3.9926 3.0212
thorax -6.87667 2.4133 3.60705
lowerneck -7.88475 -2.65755 -4.37477
upperneck 33.7055 -8.3313 26.4344
head 14.5038 -0.0349047 11.4299
rclavicle 2.3059e-014 -2.38542e-015
rhumerus -19.7043 18.2502 -58.1856
rradius 127.3
rwrist -19.9194
rhand 36.4306 10.0848
rfingers 7.12502
rthumb 59.3763 -4.33404
lclavicle 2.3059e-014 -2.38542e-015
lhumerus 20.7713 20.6808 6.20827
lradius 138.452
lwrist 83.8444
lhand 30.5293 36.4201
lfingers 7.12502
lthumb 54.1822 55.1343
rfemur -16.6349 11.9614 15.7542
rtibia 13.7825
rfoot -12.8317 -20.5216
rtoes -18.0934
lfemur -11.4183 -6.78662 -12.8056
ltibia 7.95139e-015
lfoot -4.55803 9.13219
ltoes -20.1099
3544
root -0.0770241 17.8525 1.01881 201.151 81.8571 544.901
lowerback -5.72195 2.49288 -0.806579
upperback -9.34131 4.04078 2.98539
thorax -6.85449 2.42813 3.5359
lowerneck -8.01266 -2.66177 -4.43442
upperneck 33.6062 -8.35516 26.5633
head 14.509 -0.0413048 11.4952
rclavicle 3.88624e-014 3.10104e-014
rhumerus -19.7759 17.834 -58.0168
rradius 127.327
rwrist -20.2631
rhand 36.4173 10.013
rfingers 7.12502
rthumb 59.3649 -4.41721
lclavicle 3.88624e-014 3.10104e-014
lhumerus 21.86 24.4666 8.13534
lradius 138.796
lwrist 85.8168
lhand 26.0562 33.5105
lfingers 7.12502
lthumb 50.1291 54.6652
rfemur -16.5985 11.9014 15.882
rtibia 13.704
rfoot -12.747 -20.4466
rtoes -18.1406
lfemur -11.4124 -6.83213 -12.6813
ltibia -7.95139e-015
lfoot -4.59088 9.22124
ltoes -20.1234
3545
root -0.0730588 17.8521 1.02205 201.546 81.8336 545.266
lowerback -5.69815 2.56876 -0.751266
upperback -9.34593 4.13713 2.90266
thorax -6.86877 2.46849 3.41538
lowerneck -8.09783 -2.73131 -4.46495
upperneck 33.6103 -8.4726 26.6604
head 14.5762 -0.0781807 11.5506
rclavicle -4.16454e-014 -1.82882e-014
rhumerus -20.0908 17.419 -57.9109
rradius 127.381
rwrist -20.5467
rhand 36.2602 10.0586
rfingers 7.12502
rthumb 59.2295 -4.50587
lclavicle -4.16454e-014 -1.82882e-014
lhumerus 23.3663 27.861 10.3412
lradius 139.042
lwrist 87.2878
lhand 20.7835 30.8932
lfingers 7.12502
lthumb 45.2642 54.2879
rfemur -16.5658 11.9185 15.9467
rtibia 13.5971
rfoot -12.6868 -20.4482
rtoes -18.1495
lfemur -11.4326 -6.90061 -12.5967
ltibia -2.54444e-014
lfoot -4.57257 9.32449
ltoes -20.2786
3546
root -0.0683177 17.8524 1.02651 201.744 81.7731 545.404
lowerback -5.77568 2.60936 -0.764272
upperback -9.36999 4.19124 2.84169
thorax -6.85052 2.49532 3.36154
lowerneck -8.21902 -2.78886 -4.42277
upperneck 33.7606 -8.57809 26.6506
head 14.7091 -0.0994046 11.5662
rclavicle 1.799e-014 8.74653e-015
rhumerus -20.4055 17.1084 -57.8939
rradius 127.415
rwrist -20.7901
rhand 36.147 9.93315
rfingers 7.12502
rthumb 59.1318 -4.72735
lclavicle 1.799e-014 8.74653e-015
lhumerus 25.0671 30.8234 12.7016
lradius 139.281
lwrist 87.9294
lhand 15.3576 28.5993
lfingers 7.12502
lthumb 40.1881 53.7683
rfemur -16.5608 11.9679 15.9852
rtibia 13.513
rfoot -12.6586 -20.5379
rtoes -18.025
lfemur -11.4987 -7.00882 -12.5152
ltibia 2.06736e-014
lfoot -4.58693 9.39533
ltoes -19.9349
3547
root -0.0655016 17.8518 1.03225 202.071 81.6876 545.731
lowerback -5.79655 2.65577 -0.766435
upperback -9.36721 4.25063 2.79305
thorax -6.83569 2.52289 3.31227
lowerneck -8.27243 -2.84291 -4.37758
upperneck 33.8114 -8.66823 26.6629
head 14.7735 -0.120633 11.5699
rclavicle 3.12092e-014 4.77083e-014
rhumerus -20.6647 16.7785 -57.8744
rradius 127.434
rwrist -20.9339
rhand 36.0331 9.80048
rfingers 7.12502
rthumb 59.0335 -4.95594
lclavicle 3.12092e-014 4.77083e-014
lhumerus 27.0519 33.4786 15.3201
lradius 139.385
lwrist 88.1847
lhand 9.99105 26.5191
lfingers 7.12502
lthumb 35.1179 53.0476
rfemur -16.5104 11.9631 16.0856
rtibia 13.4692
rfoot -12.7522 -20.5457
rtoes -17.9198
lfemur -11.5188 -7.13349 -12.3924
ltibia -9.54166e-015
lfoot -4.63878 9.47084
ltoes -19.7744
3548
root -0.0643226 17.8506 1.03824 202.041 81.603 545.759
lowerback -5.75636 2.67845 -0.848812
upperback -9.33825 4.27893 2.78985
thorax -6.8351 2.54091 3.35308
lowerneck -8.16317 -2.86776 -4.38863
upperneck 33.7297 -8.68016 26.6679
head 14.7087 -0.134898 11.5518
rclavicle -3.6477e-014 9.54166e-015
rhumerus -20.795 16.5591 -57.764
rradius 127.443
rwrist -21.0425
rhand 35.9357 9.62668
rfingers 7.12502
rthumb 58.9493 -5.21128
lclavicle -3.6477e-014 9.54166e-015
lhumerus 29.1483 35.9002 18.1018
lradius 139.373
lwrist 88.5462
lhand 4.75518 25.1438
lfingers 7.12502
lthumb 30.1364 52.7063
rfemur -16.4294 11.9344 16.1589
rtibia 13.4705
rfoot -12.7124 -20.5783
rtoes -18.0082
lfemur -11.4873 -7.28412 -12.3253
ltibia 1.59028e-015
lfoot -4.57553 9.55739
ltoes -20.4072
3549
root -0.0602569 17.8487 1.04332 201.93 81.4624 545.776
lowerback -5.73027 2.6264 -0.929177
upperback -9.29768 4.20763 2.82783
thorax -6.80989 2.51015 3.43837
lowerneck -7.9835 -2.85736 -4.3034
upperneck 33.7873 -8.62975 26.4998
head 14.6566 -0.122921 11.4499
rclavicle -5.26779e-015 -2.78299e-014
rhumerus -20.887 16.5109 -57.7379
rradius 127.425
rwrist -21.1064
rhand 35.9522 9.84155
rfingers 7.12502
rthumb 58.9635 -4.98264
lclavicle -5.26779e-015 -2.78299e-014
lhumerus 31.0832 37.8976 20.6627
lradius 139.324
lwrist 89.0709
lhand -0.222142 23.5713
lfingers 7.12502
lthumb 25.3776 51.9025
rfemur -16.2682 11.8657 16.2695
rtibia 13.5007
rfoot -12.6699 -20.6587
rtoes -18.2315
lfemur -11.3684 -7.49863 -12.2583
ltibia 4.77083e-015
lfoot -4.5089 9.66181
ltoes -21.3073
3550
root -0.055336 17.8473 1.04986 201.382 81.3054 545.348
lowerback -5.73241 2.57903 -1.09423
upperback -9.26392 4.14343 2.84693
thorax -6.78126 2.48828 3.55242
lowerneck -7.69749 -2.82454 -4.3088
upperneck 33.7739 -8.53623 26.4669
head 14.5476 -0.096771 11.4271
rclavicle 6.26172e-015 -4.77083e-015
rhumerus -21.0408 16.4556 -57.7323
rradius 127.394
rwrist -21.16
rhand 35.8955 10.1404
rfingers 7.12502
rthumb 58.9145 -4.73113
lclavicle 6.26172e-015 -4.77083e-015
lhumerus 33.2556 39.3915 23.4674
lradius 139.166
lwrist 89.8145
lhand -4.96929 21.6217
lfingers 7.12502
lthumb 20.8229 50.5243
rfemur -16.1188 11.7675 16.3179
rtibia 13.58
rfoot -12.7205 -20.7342
rtoes -18.1622
lfemur -11.254 -7.75281 -12.2472
ltibia 8.74653e-015
lfoot -4.50881 9.75349
ltoes -21.1589
